<?xml version="1.0" standalone="no"?>
<!DOCTYPE svg PUBLIC "-//W3C//DTD SVG 20010904//EN"
 "http://www.w3.org/TR/2001/REC-SVG-20010904/DTD/svg10.dtd">
<svg version="1.0" xmlns="http://www.w3.org/2000/svg"
 width="902.000000pt" height="1039.000000pt" viewBox="0 0 902.000000 1039.000000"
 preserveAspectRatio="xMidYMid meet">

<g transform="translate(0.000000,1039.000000) scale(0.100000,-0.100000)"
fill="#000000" stroke="none">
<path d="M2773 8268 c-6 -7 -12 -19 -15 -27 -3 -10 -20 -15 -54 -15 -43 -1
-49 -4 -52 -23 -2 -12 7 -44 19 -70 13 -27 21 -62 20 -81 -4 -46 13 -62 64
-62 36 0 48 5 69 30 23 29 25 38 25 132 0 58 -5 108 -11 115 -13 17 -53 17
-65 1z"/>
<path d="M4469 7506 c-8 -17 -7 -37 6 -82 9 -32 18 -85 19 -116 3 -61 23 -103
55 -113 23 -7 103 31 143 68 31 29 29 47 -8 85 -21 22 -22 24 -6 73 15 45 15
53 1 77 -18 32 -54 40 -79 17 -18 -16 -20 -16 -35 -1 -9 9 -32 16 -51 16 -26
0 -37 -5 -45 -24z"/>
<path d="M770 7394 c0 -8 5 -12 10 -9 6 4 8 11 5 16 -9 14 -15 11 -15 -7z"/>
<path d="M6330 7190 c-17 -17 -20 -33 -20 -110 0 -86 1 -91 31 -125 26 -29 38
-35 70 -35 52 0 83 30 75 72 -4 21 0 38 13 57 25 36 30 53 19 74 -12 23 -47
22 -73 -3 l-22 -21 -6 41 c-9 69 -46 91 -87 50z"/>
<path d="M2570 5827 c-85 -57 -365 -249 -462 -318 -210 -148 -249 -177 -318
-238 -150 -130 -431 -430 -586 -623 -41 -51 -96 -119 -122 -151 -63 -78 -202
-307 -202 -334 0 -63 178 -363 288 -483 49 -54 68 -67 108 -78 154 -39 297
-95 493 -193 207 -103 215 -108 187 -118 -162 -63 -249 -109 -254 -135 -5 -22
31 -60 163 -175 158 -137 302 -251 400 -315 50 -32 143 -94 208 -138 65 -43
121 -78 125 -78 40 1 43 22 62 550 15 428 56 760 114 926 l24 69 51 3 51 3 -5
-38 c-43 -305 -45 -1100 -4 -1295 30 -140 84 -146 123 -12 49 166 85 579 92
1049 l4 300 41 3 c39 3 41 2 35 -20 -23 -85 -16 -321 19 -628 8 -69 21 -199
30 -290 30 -322 76 -491 152 -561 37 -35 67 -44 83 -24 21 26 24 205 6 371 -8
82 -20 214 -26 294 -11 153 -17 203 -55 475 -13 94 -26 218 -29 278 l-7 107
39 0 c22 0 67 3 102 7 55 5 63 4 57 -10 -3 -8 -7 -249 -8 -534 l-1 -518 25
-125 c41 -197 78 -290 116 -290 22 0 83 64 109 117 54 105 70 240 53 443 -15
182 -36 322 -78 525 -22 106 -37 212 -40 283 l-6 112 91 0 91 0 0 -392 c1
-478 13 -636 62 -798 24 -80 31 -93 55 -88 33 6 98 162 128 310 27 133 22 225
-32 583 -11 72 -24 187 -27 258 l-8 127 65 0 65 0 7 -182 c16 -423 25 -580 41
-693 28 -212 54 -293 89 -282 15 4 89 155 117 237 31 93 34 190 10 370 -11 85
-23 244 -27 353 l-7 197 56 0 c39 0 57 -4 57 -12 0 -7 5 -164 10 -348 17 -569
41 -667 134 -559 40 48 71 120 93 224 12 56 13 100 7 220 -5 83 -9 224 -9 315
l0 165 43 3 42 3 0 -320 c0 -393 16 -541 59 -541 33 0 50 36 95 192 66 233 80
331 73 515 l-6 153 43 0 44 0 -5 -142 c-5 -149 19 -504 37 -553 8 -21 16 -26
37 -23 26 3 30 10 60 109 54 181 63 242 63 434 l0 175 45 0 c42 0 45 -2 36
-19 -14 -25 -31 -357 -24 -459 7 -104 21 -114 74 -53 67 75 106 215 116 414
l6 117 49 0 c48 0 48 0 41 -27 -13 -47 -8 -375 6 -401 18 -34 52 -25 73 18 36
73 70 199 81 303 l11 107 37 0 37 0 4 -180 c2 -151 6 -182 20 -196 25 -25 40
-13 75 58 43 88 64 165 68 251 l4 72 74 3 75 3 5 -148 c8 -218 49 -379 152
-588 181 -371 450 -606 695 -608 167 -1 284 103 346 308 23 74 26 311 5 425
-43 236 -187 552 -313 686 -27 28 -28 32 -12 45 33 27 138 195 190 303 61 128
105 255 130 376 22 108 25 350 5 430 -101 402 -471 440 -803 81 -239 -258
-398 -650 -398 -982 l0 -109 -86 0 c-76 0 -85 2 -74 15 27 33 -18 234 -74 330
-28 47 -58 59 -72 28 -4 -10 -9 -98 -12 -195 l-4 -178 -37 0 -38 0 -7 83 c-8
100 -28 191 -62 277 -40 101 -74 127 -96 73 -17 -43 -17 -395 1 -416 12 -16 9
-17 -41 -17 l-55 0 -6 118 c-10 201 -53 354 -121 425 -44 47 -60 34 -68 -53
-8 -91 8 -428 22 -465 10 -26 10 -26 -33 -23 l-42 3 -6 205 c-6 195 -8 211
-43 340 -46 168 -64 198 -102 172 -18 -12 -22 -37 -40 -237 -10 -122 -14 -241
-11 -332 l5 -143 -42 0 -41 0 0 202 c-1 202 -1 204 -38 343 -54 201 -86 294
-106 305 -61 32 -81 -99 -81 -532 l0 -318 -46 0 -47 0 7 198 c3 108 9 250 12
314 6 100 3 132 -15 210 -24 102 -72 200 -114 232 -25 18 -29 19 -43 4 -34
-34 -64 -316 -64 -603 0 -71 -3 -181 -7 -242 l-6 -113 -55 0 -55 0 7 203 c4
111 14 254 24 317 9 63 16 167 16 230 0 126 -16 185 -91 333 -52 104 -73 103
-104 -9 -35 -128 -80 -696 -79 -1011 l0 -63 -65 0 -65 0 0 53 c0 91 20 277 46
427 57 328 44 482 -61 730 -41 97 -62 101 -94 17 -55 -149 -71 -332 -72 -837
l0 -391 -87 3 -87 3 1 110 c1 82 9 148 32 260 49 233 71 383 83 574 13 203 1
308 -46 402 -27 55 -97 129 -121 129 -35 0 -81 -124 -116 -310 -19 -97 -20
-144 -18 -625 1 -285 4 -523 6 -527 3 -4 -40 -8 -95 -8 -74 0 -101 3 -101 13
1 67 24 315 40 416 26 173 38 272 50 436 6 77 18 207 26 289 19 171 15 349 -7
371 -12 12 -20 12 -54 -4 -32 -14 -47 -31 -72 -77 -60 -113 -81 -221 -128
-684 -47 -469 -53 -612 -29 -727 l7 -33 -137 0 c-87 0 -136 4 -136 10 0 6 20
54 44 108 110 244 135 311 178 477 27 103 32 138 32 245 0 109 -4 141 -33 255
-44 171 -100 308 -147 356 -20 20 -64 51 -97 69 -62 32 -189 70 -236 70 -14 0
-55 -20 -91 -43z m262 -64 c62 -39 92 -77 132 -165 78 -169 115 -377 96 -538
-5 -47 -12 -116 -15 -155 -9 -128 -16 -149 -111 -331 -52 -99 -101 -201 -110
-225 -196 -530 -234 -673 -274 -1034 -41 -357 -52 -593 -34 -703 l7 -44 -171
115 c-202 136 -346 250 -534 424 l-47 43 32 17 c18 9 84 38 147 63 84 35 116
52 118 66 4 27 -458 259 -618 311 -63 20 -131 44 -150 52 -83 38 -228 226
-318 414 l-43 89 40 71 c111 202 346 489 670 820 178 182 337 306 721 563 63
42 131 89 151 105 19 15 58 40 85 54 68 36 158 31 226 -12z m594 -388 c-8 -88
-18 -205 -21 -260 -4 -55 -20 -194 -37 -310 -16 -115 -35 -279 -41 -365 l-12
-155 -40 0 c-39 0 -40 1 -48 45 -15 82 1 398 37 735 41 383 42 385 68 489 21
87 49 148 82 184 l21 24 3 -114 c2 -62 -4 -185 -12 -273z m317 247 c43 -80 57
-152 57 -302 -1 -216 -22 -403 -81 -691 -18 -92 -30 -184 -32 -248 l-2 -101
-47 0 -47 0 4 468 c3 257 7 502 10 545 7 100 30 220 61 319 28 89 33 90 77 10z
m3512 -106 c254 -118 272 -611 39 -1071 -41 -80 -84 -148 -155 -244 -17 -24
-20 -34 -11 -43 7 -7 8 -16 2 -23 -6 -7 15 -46 61 -115 90 -135 149 -253 193
-388 57 -178 71 -260 70 -417 -1 -123 -4 -150 -28 -220 -45 -138 -119 -214
-229 -237 -76 -16 -146 -1 -257 53 -72 36 -102 59 -196 153 -64 64 -133 145
-163 191 -154 238 -243 516 -244 769 -1 91 2 110 16 118 17 9 24 38 9 38 -11
0 -9 121 2 138 5 8 1 21 -10 33 -16 17 -18 37 -17 127 3 337 167 720 408 957
51 50 117 105 149 124 138 82 265 102 361 57z m-3164 -236 c35 -124 33 -335
-4 -545 -15 -83 -29 -197 -32 -255 -3 -58 -8 -129 -11 -157 l-5 -53 -45 0 -44
0 0 103 c1 247 20 789 30 867 6 47 18 117 27 155 l16 70 22 -50 c12 -27 33
-88 46 -135z m310 -36 c62 -146 66 -194 40 -402 -13 -97 -26 -265 -29 -372
l-7 -195 -74 -3 -74 -3 7 31 c3 18 10 167 16 333 14 397 47 713 73 704 6 -2
28 -44 48 -93z m292 -127 c44 -74 68 -161 69 -250 0 -45 -3 -198 -7 -339 l-8
-258 -75 0 c-72 0 -74 1 -68 23 4 12 11 150 16 307 9 262 25 517 35 548 7 19
11 15 38 -31z m297 -222 c55 -189 70 -288 70 -465 l0 -160 -66 0 -67 0 6 343
c5 297 11 406 22 395 2 -2 17 -52 35 -113z m317 -190 c20 -80 26 -135 30 -273
l6 -173 -49 3 -49 3 -8 90 c-8 86 8 469 21 489 7 13 19 -20 49 -139z m226 -59
c21 -68 34 -151 42 -261 4 -49 9 -98 11 -107 5 -15 -2 -18 -39 -18 -42 0 -44
1 -44 33 0 50 -13 336 -18 397 l-5 55 19 -24 c10 -13 25 -47 34 -75z m297
-259 c6 -40 12 -84 15 -99 4 -27 4 -28 -46 -28 -45 0 -50 2 -39 15 9 11 11 48
5 149 -4 74 -3 145 1 158 6 19 11 12 31 -50 13 -41 28 -106 33 -145z m229 70
c10 -34 22 -87 26 -117 4 -30 12 -61 17 -67 8 -10 0 -13 -36 -13 l-46 0 0 136
c0 85 4 133 10 129 5 -3 18 -34 29 -68z m-864 -242 c77 -2 357 -4 622 -4 l482
-1 7 -22 c10 -31 7 -79 -4 -90 -10 -10 -1528 -27 -2627 -29 -313 0 -633 -5
-710 -10 -76 -4 -141 -6 -143 -4 -5 4 31 99 55 148 l14 28 1082 -6 c595 -4
1145 -8 1222 -10z m905 -179 c0 -19 -33 -171 -46 -211 -28 -86 -34 -75 -34 67
l0 137 33 4 c17 2 35 5 40 5 4 1 7 0 7 -2z m-1043 -203 c-5 -206 -15 -266 -79
-477 -19 -63 -22 -68 -31 -45 -5 13 -12 180 -15 372 l-5 347 68 0 67 0 -5
-197z m283 75 c0 -68 -5 -157 -10 -198 -12 -89 -61 -273 -71 -262 -13 14 -30
361 -23 471 l7 111 48 0 49 0 0 -122z m234 -16 c-13 -148 -33 -242 -65 -305
-11 -21 -22 -37 -23 -35 -2 1 1 95 7 208 5 113 10 220 11 238 1 31 3 32 42 32
l40 0 -12 -138z m269 106 c-17 -144 -57 -303 -74 -292 -6 3 -9 67 -7 165 l3
159 41 0 c40 0 40 -1 37 -32z m-2156 -71 c1 -90 8 -133 58 -392 56 -295 71
-675 31 -790 -19 -52 -66 -135 -78 -135 -12 0 -47 108 -68 211 -27 134 -29
185 -34 722 -3 251 -8 462 -11 467 -4 6 15 10 47 10 l53 0 2 -93z m357 51 c3
-24 8 -93 11 -154 3 -61 17 -178 31 -260 32 -191 41 -349 24 -451 -13 -83 -65
-259 -79 -267 -12 -8 -38 101 -51 210 -10 81 -28 624 -30 867 l0 97 44 0 45 0
5 -42z m368 -158 c3 -108 14 -252 23 -320 27 -199 29 -248 11 -323 -25 -104
-106 -271 -106 -217 0 5 -7 49 -15 97 -22 135 -34 291 -45 613 -5 162 -13 308
-16 323 l-6 28 74 -3 73 -3 7 -195z m343 -52 c11 -363 11 -377 -4 -444 -13
-62 -68 -175 -87 -181 -16 -5 -33 211 -44 557 -5 157 -12 293 -15 303 -6 15 1
17 68 17 l74 0 8 -252z m-1697 2 c4 -312 -16 -687 -48 -890 -32 -201 -47 -263
-59 -255 -47 29 -50 861 -5 1312 l7 62 36 4 c71 8 66 25 69 -233z m269 85 c6
-82 25 -247 42 -365 16 -118 35 -287 41 -375 6 -88 15 -198 20 -245 6 -47 10
-143 10 -215 l-1 -130 -30 35 c-59 69 -98 219 -124 475 -9 88 -25 239 -36 335
-24 212 -34 457 -25 563 l8 78 41 -3 42 -3 12 -150z"/>
<path d="M2188 5135 c-104 -26 -170 -120 -170 -244 -2 -262 296 -332 403 -96
25 55 25 166 0 220 -46 99 -135 145 -233 120z m117 -97 c84 -66 69 -239 -25
-289 -93 -50 -180 18 -180 141 0 98 57 170 134 170 29 0 52 -7 71 -22z"/>
<path d="M2180 4940 c-27 -27 -26 -71 3 -98 47 -44 120 -15 120 48 0 62 -79
94 -123 50z"/>
<path d="M2611 4243 c-38 -77 -114 -289 -139 -388 -33 -131 -59 -411 -77 -805
-2 -58 -9 -121 -15 -140 -14 -48 -13 -83 2 -78 19 7 36 97 41 227 17 364 48
687 78 799 27 101 106 318 135 371 13 24 24 50 24 57 0 30 -21 11 -49 -43z"/>
<path d="M1082 4194 c4 -21 22 -23 26 -1 2 10 -3 17 -13 17 -10 0 -15 -6 -13
-16z"/>
</g>
</svg>
