<?xml version="1.0" standalone="no"?>
<!DOCTYPE svg PUBLIC "-//W3C//DTD SVG 20010904//EN"
 "http://www.w3.org/TR/2001/REC-SVG-20010904/DTD/svg10.dtd">
<svg version="1.0" xmlns="http://www.w3.org/2000/svg"
 width="976.000000pt" height="714.000000pt" viewBox="0 0 976.000000 714.000000"
 preserveAspectRatio="xMidYMid meet">

<g transform="translate(0.000000,714.000000) scale(0.100000,-0.100000)"
fill="#000000" stroke="none">
<path d="M1160 6724 c0 -8 5 -12 10 -9 6 4 8 11 5 16 -9 14 -15 11 -15 -7z"/>
<path d="M3102 5188 c-71 -9 -80 -13 -235 -114 -334 -218 -455 -305 -646 -465
-334 -278 -647 -628 -827 -926 -36 -59 -77 -124 -90 -143 -22 -33 -23 -38 -10
-81 8 -25 43 -94 79 -155 324 -545 940 -1114 1612 -1487 115 -64 217 -94 364
-106 260 -23 649 19 1021 110 694 170 1452 567 2148 1128 197 159 192 155 192
139 1 -43 23 -162 41 -218 31 -94 121 -266 192 -367 73 -103 258 -293 339
-347 85 -56 187 -89 280 -89 66 -1 85 4 141 31 148 73 174 124 184 352 9 228
-19 334 -172 640 -110 219 -149 332 -142 405 8 82 46 179 147 380 131 259 170
389 170 564 -1 205 -66 347 -192 417 -48 26 -61 29 -143 28 -68 0 -104 -6
-148 -23 -220 -86 -497 -394 -623 -691 -42 -100 -62 -175 -70 -267 l-7 -71
-111 84 c-414 311 -977 641 -1424 834 -272 117 -613 231 -852 285 -63 14 -158
39 -210 55 -137 42 -284 65 -640 100 -116 11 -270 11 -368 -2z m1515 -348 c71
-57 146 -157 174 -230 57 -151 18 -305 -115 -448 -71 -75 -107 -97 -136 -82
-39 21 -25 58 49 134 95 99 125 160 125 256 0 67 -3 82 -34 140 -22 41 -63 92
-112 140 -77 74 -91 103 -66 128 22 22 53 12 115 -38z m-1935 -345 c107 -71
123 -275 31 -408 -73 -105 -215 -116 -287 -23 -105 138 -52 376 99 447 49 24
105 18 157 -16z m2634 -78 c177 -130 274 -320 244 -477 -13 -70 -52 -153 -96
-207 -50 -61 -77 -77 -103 -63 -31 16 -26 54 16 107 150 196 108 377 -129 560
-60 46 -79 82 -58 108 22 27 65 17 126 -28z m-1924 -62 c14 -32 -35 -1684 -52
-1715 -13 -24 -52 -26 -71 -4 -10 13 -9 149 9 767 26 879 29 943 49 963 22 22
52 17 65 -11z m1298 -422 c99 -59 199 -163 246 -258 39 -79 39 -79 39 -200 0
-116 -1 -123 -33 -188 -52 -105 -212 -261 -303 -295 -38 -15 -71 2 -67 35 2
21 20 40 68 76 100 74 178 156 210 221 27 53 30 69 30 150 0 76 -4 100 -25
144 -36 78 -87 135 -192 213 -94 71 -111 97 -81 127 19 19 39 14 108 -25z
m-896 -9 c12 -11 16 -36 16 -92 0 -132 -21 -815 -26 -849 -8 -52 -61 -67 -84
-23 -6 11 -4 186 5 480 13 405 17 465 31 482 21 22 38 23 58 2z m2199 -144
c45 -39 104 -160 116 -237 16 -102 -8 -211 -67 -308 -48 -79 -82 -100 -121
-76 -24 16 -14 55 32 123 91 135 85 283 -17 417 -30 40 -34 85 -8 100 25 15
28 14 65 -19z m-1845 -62 c9 -9 12 -87 12 -288 0 -264 -1 -278 -20 -295 -28
-26 -70 -7 -71 32 -4 163 4 540 13 550 13 16 50 17 66 1z m1293 -469 c51 -56
105 -162 118 -234 27 -152 -50 -319 -208 -451 -78 -64 -133 -86 -158 -62 -27
28 -8 63 65 121 228 182 266 357 120 551 -39 52 -47 83 -26 104 22 22 51 13
89 -29z m-2703 -32 c5 -25 -30 -61 -110 -114 -168 -109 -277 -143 -403 -123
-225 34 -561 178 -542 233 8 26 43 17 146 -36 220 -114 455 -164 568 -122 59
22 147 74 233 137 67 49 102 57 108 25z m1880 -371 c103 -86 185 -218 197
-321 15 -118 -36 -244 -146 -359 -79 -84 -127 -113 -159 -96 -39 21 -24 53 65
143 107 107 140 170 140 272 0 92 -33 160 -121 252 -82 84 -87 94 -68 121 21
31 46 27 92 -12z"/>
<path d="M2535 4408 c-86 -68 -88 -270 -2 -309 65 -30 147 74 147 187 0 115
-74 178 -145 122z"/>
</g>
</svg>
