<?xml version="1.0" standalone="no"?>
<!DOCTYPE svg PUBLIC "-//W3C//DTD SVG 20010904//EN"
 "http://www.w3.org/TR/2001/REC-SVG-20010904/DTD/svg10.dtd">
<svg version="1.0" xmlns="http://www.w3.org/2000/svg"
 width="869.000000pt" height="756.000000pt" viewBox="0 0 869.000000 756.000000"
 preserveAspectRatio="xMidYMid meet">

<g transform="translate(0.000000,756.000000) scale(0.100000,-0.100000)"
fill="#000000" stroke="none">
<path d="M350 7264 c0 -8 5 -12 10 -9 6 4 8 11 5 16 -9 14 -15 11 -15 -7z"/>
<path d="M2420 5676 c0 -7 -24 -18 -57 -26 -99 -21 -117 -29 -198 -82 -309
-203 -533 -650 -617 -1233 -17 -121 -17 -599 0 -720 105 -728 424 -1235 838
-1331 120 -28 482 -36 664 -15 877 101 1786 518 2658 1220 197 159 192 155
192 139 1 -43 23 -162 41 -218 31 -94 121 -266 192 -367 73 -103 258 -293 339
-347 85 -56 187 -89 280 -89 66 -1 85 4 141 31 148 73 174 124 184 352 9 228
-19 334 -172 640 -110 219 -149 332 -142 405 8 82 46 179 147 380 131 259 170
389 170 564 -1 205 -66 347 -192 417 -48 26 -61 29 -143 28 -68 0 -104 -6
-148 -23 -220 -86 -497 -394 -623 -691 -42 -100 -62 -175 -70 -267 l-7 -71
-111 84 c-178 133 -496 344 -700 463 -749 438 -1449 682 -2131 745 -233 22
-535 28 -535 12z m570 -261 c35 -36 62 -65 59 -65 -2 0 -34 29 -69 65 -35 36
-62 65 -59 65 2 0 34 -29 69 -65z m817 -35 c71 -57 146 -157 174 -230 57 -151
18 -305 -115 -448 -71 -75 -107 -97 -136 -82 -39 21 -25 58 49 134 95 99 125
160 125 256 0 67 -3 82 -34 140 -22 41 -63 92 -112 140 -77 74 -91 103 -66
128 22 22 53 12 115 -38z m-732 -60 c10 -11 16 -20 13 -20 -3 0 -13 9 -23 20
-10 11 -16 20 -13 20 3 0 13 -9 23 -20z m36 -47 c13 -16 12 -17 -3 -4 -10 7
-18 15 -18 17 0 8 8 3 21 -13z m49 -73 c6 -11 8 -20 6 -20 -3 0 -10 9 -16 20
-6 11 -8 20 -6 20 3 0 10 -9 16 -20z m30 -50 c6 -11 8 -20 6 -20 -3 0 -10 9
-16 20 -6 11 -8 20 -6 20 3 0 10 -9 16 -20z m-573 -100 c95 -43 181 -163 225
-315 20 -70 23 -102 22 -250 0 -164 -1 -173 -31 -262 -69 -201 -178 -306 -318
-307 -74 0 -124 24 -184 89 -164 178 -201 602 -75 860 33 67 126 169 174 189
49 21 136 20 187 -4z m663 -85 c0 -5 -5 -3 -10 5 -5 8 -10 20 -10 25 0 6 5 3
10 -5 5 -8 10 -19 10 -25z m1226 -8 c177 -130 274 -320 244 -477 -13 -70 -52
-153 -96 -207 -50 -61 -77 -77 -103 -63 -31 16 -26 54 16 107 150 196 108 377
-129 560 -60 46 -79 82 -58 108 22 27 65 17 126 -28z m-1149 -219 c-3 -8 -6
-5 -6 6 -1 11 2 17 5 13 3 -3 4 -12 1 -19z m523 -265 c99 -59 199 -163 246
-258 39 -79 39 -79 39 -200 0 -116 -1 -123 -33 -188 -52 -105 -212 -261 -303
-295 -38 -15 -71 2 -67 35 2 21 20 40 68 76 100 74 178 156 210 221 27 53 30
69 30 150 0 76 -4 100 -25 144 -36 78 -87 135 -192 213 -94 71 -111 97 -81
127 19 19 39 14 108 -25z m1303 -153 c45 -39 104 -160 116 -237 16 -102 -8
-211 -67 -308 -48 -79 -82 -100 -121 -76 -24 16 -14 55 32 123 91 135 85 283
-17 417 -30 40 -34 85 -8 100 25 15 28 14 65 -19z m-552 -531 c51 -56 105
-162 118 -234 27 -152 -50 -319 -208 -451 -78 -64 -133 -86 -158 -62 -27 28
-8 63 65 121 228 182 266 357 120 551 -39 52 -47 83 -26 104 22 22 51 13 89
-29z m-1174 -36 c-3 -10 -5 -4 -5 12 0 17 2 24 5 18 2 -7 2 -21 0 -30z m-10
-115 c-3 -7 -5 -2 -5 12 0 14 2 19 5 13 2 -7 2 -19 0 -25z m-10 -70 c-3 -8 -6
-5 -6 6 -1 11 2 17 5 13 3 -3 4 -12 1 -19z m-1830 -10 c-3 -8 -6 -5 -6 6 -1
11 2 17 5 13 3 -3 4 -12 1 -19z m1820 -60 c-3 -8 -6 -5 -6 6 -1 11 2 17 5 13
3 -3 4 -12 1 -19z m-10 -50 c-3 -8 -6 -5 -6 6 -1 11 2 17 5 13 3 -3 4 -12 1
-19z m-10 -50 c-3 -8 -6 -5 -6 6 -1 11 2 17 5 13 3 -3 4 -12 1 -19z m401 -12
c103 -86 185 -218 197 -321 15 -118 -36 -244 -146 -359 -79 -84 -127 -113
-159 -96 -39 21 -24 53 65 143 107 107 140 170 140 272 0 92 -33 160 -121 252
-82 84 -87 94 -68 121 21 31 46 27 92 -12z m-411 -38 c-3 -8 -6 -5 -6 6 -1 11
2 17 5 13 3 -3 4 -12 1 -19z m-10 -40 c-3 -8 -6 -5 -6 6 -1 11 2 17 5 13 3 -3
4 -12 1 -19z m-1282 -818 c10 -11 16 -20 13 -20 -3 0 -13 9 -23 20 -10 11 -16
20 -13 20 3 0 13 -9 23 -20z m56 -47 c13 -16 12 -17 -3 -4 -10 7 -18 15 -18
17 0 8 8 3 21 -13z m624 -63 c-3 -5 -12 -10 -18 -10 -7 0 -6 4 3 10 19 12 23
12 15 0z m-147 -87 c-10 -2 -26 -2 -35 0 -10 3 -2 5 17 5 19 0 27 -2 18 -5z"/>
<path d="M3700 1365 c-7 -9 -10 -18 -7 -22 8 -7 37 15 37 28 0 14 -16 11 -30
-6z"/>
</g>
</svg>
